<?xml version="1.0" standalone="no"?><!DOCTYPE svg PUBLIC "-//W3C//DTD SVG 1.1//EN" "http://www.w3.org/Graphics/SVG/1.1/DTD/svg11.dtd"><svg t="1581732913314" class="icon" viewBox="0 0 1024 1024" version="1.1" xmlns="http://www.w3.org/2000/svg" p-id="6762" xmlns:xlink="http://www.w3.org/1999/xlink" width="200" height="200"><defs><style type="text/css"></style></defs><path d="M385.742818 542.857767c3.412356 0 71.659482 37.535919 126.257182 37.535919s122.844825-34.123563 126.257182-37.535919c6.824713-3.412356 10.237069-13.649425 6.824712-23.886494-3.412356-6.824713-13.649425-10.237069-23.886494-6.824712 0 0-64.834769 30.711206-112.607756 30.711206s-112.607757-30.711206-112.607757-30.711206c-6.824713-3.412356-17.061781 0-23.886494 6.824712 0 10.237069 3.412356 20.474138 13.649425 23.886494z" fill="#ffd328" p-id="6763"></path><path d="M788.400857 652.053167c20.474138-13.649425 30.711206-23.886494 30.711207-54.5977 0-30.711206-23.886494-51.185344-61.422413-51.185344H750.864938V334.704035c3.412356 3.412356 6.824713 3.412356 6.824713 3.412356 3.412356 3.412356 6.824713 3.412356 10.237069 3.412357 6.824713 0 10.237069-3.412356 13.649425-6.824713 3.412356-6.824713 3.412356-17.061781-6.824713-23.886494 0 0-10.237069-6.824713-27.29885-13.649425v-6.824712c0-119.432469-75.071838-218.390801-174.030169-245.689651 13.649425-6.824713 30.711206-10.237069 47.772987-10.237069 34.123563 3.412356 68.247125 23.886494 98.958332 61.422413 3.412356 3.412356 10.237069 6.824713 13.649425 6.824712 3.412356 0 6.824713 0 10.237069-3.412356 6.824713-6.824713 6.824713-17.061781 3.412356-23.886494C709.916663 31.004328 668.968388 3.705478 624.607757 0.293121c-51.185344-3.412356-88.721263 23.886494-102.370688 34.123563h-20.474138c-23.886494-13.649425-146.731319-85.308907-259.339076 40.948275-6.824713 6.824713-3.412356 17.061781 3.412357 23.886494 3.412356 3.412356 6.824713 3.412356 10.237068 3.412356 3.412356 0 10.237069-3.412356 13.649425-6.824712C334.557474 24.179615 402.8046 27.591971 443.752875 44.653753c-98.958332 30.711206-170.617813 126.257182-170.617813 245.689651v6.824712c-13.649425 6.824713-23.886494 10.237069-27.29885 13.649425-6.824713 3.412356-10.237069 13.649425-3.412357 23.886494 3.412356 3.412356 6.824713 6.824713 13.649425 6.824713 3.412356 0 6.824713 0 10.237069-3.412357 0 0 3.412356-3.412356 6.824713-3.412356v208.153732c-6.824713 0-13.649425-3.412356-20.474138-3.412356-44.360631 0-47.772988 30.711206-47.772988 40.948275 0 27.29885 10.237069 44.360631 30.711207 68.247125-34.123563 58.010056-30.711206 238.864938-30.711207 276.400857 0 3.412356 0 6.824713 3.412357 6.824713 6.824713 13.649425 34.123563 58.010056 64.834769 61.422413h6.824712c27.29885 0 54.5977-17.061781 58.010057-20.474138 0 0 0-3.412356 3.412356-3.412356l3.412356-3.412356v-3.412357-3.412356-3.412356-3.412357-3.412356-3.412356c-10.237069-6.824713-47.772988-58.010056-88.721263-58.010056-10.237069 0-17.061781 6.824713-17.061781 17.061781s6.824713 17.061781 17.061781 17.061781c13.649425 0 30.711206 13.649425 40.948275 27.29885-6.824713 3.412356-13.649425 6.824713-20.474137 6.824713-6.824713 0-23.886494-20.474138-37.535919-37.535919 0-40.948275 0-88.721263 3.412356-133.081894 10.237069 51.185344 47.772988 126.257182 133.081895 136.49425-3.412356 13.649425-10.237069 27.29885-17.061782 40.948275-10.237069 13.649425-17.061781 27.29885-17.061781 44.360632 0 10.237069 6.824713 17.061781 17.061781 17.061781h136.494251c6.824713 0 17.061781-6.824713 17.061781-13.649425 0 6.824713 6.824713 13.649425 17.061781 13.649425h136.494251c10.237069 0 17.061781-6.824713 17.061781-17.061781 0-17.061781-13.649425-34.123563-23.886494-47.772988-10.237069-10.237069-20.474138-23.886494-23.886494-37.535919 85.308907-10.237069 133.081894-92.133619 146.73132-139.906607 3.412356 37.535919 3.412356 85.308907 3.412356 119.43247v3.412356c0-10.237069-6.824713-17.061781-17.061781-17.061781-40.948275 0-75.071838 34.123563-81.896551 37.535918v20.474138s0 3.412356 3.412357 3.412356v3.412356c10.237069 10.237069 47.772988 37.535919 75.071837 37.535919h3.412357c34.123563-3.412356 44.360631-58.010056 47.772987-85.308906 3.412356-34.123563 6.824713-194.504307-27.29885-252.514364z m-23.886494 303.699708c-6.824713 0-23.886494-6.824713-37.535918-17.061782 10.237069-6.824713 27.29885-17.061781 40.948275-17.061781 6.824713 0 13.649425-3.412356 17.061781-10.237069-6.824713 20.474138-13.649425 40.948275-20.474138 44.360632zM512 68.540247c112.607757 0 201.329019 92.133619 204.741376 214.978444-10.237069-3.412356-23.886494-6.824713-37.535919-6.824712-17.061781-78.484194-85.308907-136.49425-167.205457-136.494251s-150.143676 58.010056-167.205457 136.494251c-13.649425 0-23.886494 0-37.535919 6.824712 3.412356-122.844825 92.133619-214.978445 204.741376-214.978444z m0 102.370688c75.071838 0 136.49425 61.422413 136.49425 136.49425s-61.422413 136.49425-136.49425 136.49425-136.49425-61.422413-136.49425-136.49425 61.422413-136.49425 136.49425-136.49425z m-170.617813 136.49425c0 92.133619 78.484194 170.617813 170.617813 170.617813s170.617813-75.071838 170.617813-170.617813c10.237069 3.412356 23.886494 6.824713 34.123563 10.237069v238.864938l-6.824713 6.824713-3.412356 3.412356c-3.412356 3.412356-6.824713 6.824713-13.649425 10.237069 0 0-3.412356 0-3.412356 3.412356-6.824713 3.412356-10.237069 10.237069-17.061782 13.649425 0 0-3.412356 0-3.412356 3.412356-6.824713 3.412356-13.649425 10.237069-23.886494 13.649425-6.824713 3.412356-17.061781 10.237069-27.29885 13.649425 0 0-3.412356 0-3.412356 3.412357-10.237069 3.412356-17.061781 6.824713-27.29885 10.237068-3.412356 0-3.412356 0-6.824713 3.412357-10.237069 3.412356-20.474138 6.824713-30.711206 6.824712H512c-13.649425 0-23.886494 0-34.123563-3.412356h-3.412356c-10.237069-3.412356-20.474138-3.412356-30.711206-6.824713-3.412356 0-3.412356 0-6.824713-3.412356-10.237069-3.412356-20.474138-6.824713-27.29885-10.237069 0 0-3.412356 0-3.412356-3.412356-17.061781-10.237069-34.123563-17.061781-47.772988-27.29885 0 0-3.412356 0-3.412356-3.412356-6.824713-3.412356-13.649425-10.237069-17.061781-13.649425 0 0-3.412356 0-3.412357-3.412357-3.412356-3.412356-10.237069-6.824713-13.649425-10.237068-3.412356-3.412356-6.824713-6.824713-10.237068-6.824713v-238.864938c6.824713-3.412356 20.474138-6.824713 30.711206-10.237069zM256.07328 751.011499c-3.412356 0-6.824713 3.412356-10.237068 3.412356 3.412356-37.535919 10.237069-68.247125 17.061781-85.308906 10.237069 6.824713 17.061781 13.649425 27.29885 23.886494l17.061781 13.649425c0 10.237069 3.412356 20.474138 6.824713 30.711206 0 3.412356 3.412356 10.237069 3.412356 13.649425H256.07328z m255.92672 102.370688c-95.545975 0-129.669538-98.958332-136.49425-150.143676 0-6.824713 3.412356-13.649425 6.824712-17.061781 6.824713-3.412356 13.649425-3.412356 17.061781 0 0 0 58.010056 30.711206 112.607757 30.711206 51.185344 0 109.1954-30.711206 112.607757-30.711206 6.824713-3.412356 13.649425-3.412356 17.061781 0 6.824713 3.412356 6.824713 10.237069 6.824712 17.061781-6.824713 51.185344-40.948275 150.143676-136.49425 150.143676z m255.92672-102.370688h-58.010057c3.412356-6.824713 3.412356-13.649425 6.824713-17.061781 6.824713-13.649425 13.649425-27.29885 13.649425-40.948275 10.237069-10.237069 20.474138-17.061781 27.29885-20.474138 10.237069 17.061781 13.649425 47.772988 17.061781 85.308907 3.412356-3.412356-3.412356-6.824713-6.824712-6.824713z" fill="#ffd328" p-id="6764"></path><path d="M512 307.405185m-34.123563 0a34.123563 34.123563 0 1 0 68.247126 0 34.123563 34.123563 0 1 0-68.247126 0Z" fill="#ffd328" p-id="6765"></path></svg>